%TF.GenerationSoftware,KiCad,Pcbnew,7.0.9*%
%TF.CreationDate,2024-03-19T13:31:30+09:00*%
%TF.ProjectId,rubis2,72756269-7332-42e6-9b69-6361645f7063,rev?*%
%TF.SameCoordinates,Original*%
%TF.FileFunction,Legend,Bot*%
%TF.FilePolarity,Positive*%
%FSLAX46Y46*%
G04 Gerber Fmt 4.6, Leading zero omitted, Abs format (unit mm)*
G04 Created by KiCad (PCBNEW 7.0.9) date 2024-03-19 13:31:30*
%MOMM*%
%LPD*%
G01*
G04 APERTURE LIST*
%ADD10C,0.350000*%
%ADD11C,0.300000*%
G04 APERTURE END LIST*
D10*
X206829000Y-98959600D03*
X201650000Y-94738500D03*
X202946000Y-94588500D03*
X200090000Y-95274200D03*
X198534000Y-101599000D03*
X198465000Y-93027600D03*
X203568000Y-93107000D03*
X201495000Y-99278300D03*
X204000000Y-85198700D03*
X196000000Y-83500000D03*
X191000000Y-83500000D03*
X196000000Y-88500000D03*
X191000000Y-88500000D03*
X196000000Y-93500000D03*
X191000000Y-93500000D03*
X196000000Y-98500000D03*
X191000000Y-98500000D03*
X196000000Y-103500000D03*
X191000000Y-103500000D03*
X196000000Y-108500000D03*
X191000000Y-108500000D03*
X196000000Y-113500000D03*
X191000000Y-113500000D03*
X196000000Y-118500000D03*
X191000000Y-118500000D03*
X203500000Y-112500000D03*
X206040000Y-112500000D03*
X203500000Y-115040000D03*
X200960000Y-112500000D03*
X203500000Y-109960000D03*
X190500000Y-76500000D03*
X197910000Y-77770000D03*
X197910000Y-75230000D03*
X200450000Y-77770000D03*
X200450000Y-75230000D03*
D11*
X203500000Y-97000000D03*
D10*
X203500000Y-104000000D03*
X206040000Y-104000000D03*
X203500000Y-106540000D03*
X200960000Y-104000000D03*
X203500000Y-101460000D03*
X190500000Y-125500000D03*
M02*
