%TF.GenerationSoftware,KiCad,Pcbnew,7.0.9*%
%TF.CreationDate,2024-03-19T13:31:30+09:00*%
%TF.ProjectId,rubis2,72756269-7332-42e6-9b69-6361645f7063,rev?*%
%TF.SameCoordinates,Original*%
%TF.FileFunction,Copper,L1,Top*%
%TF.FilePolarity,Positive*%
%FSLAX46Y46*%
G04 Gerber Fmt 4.6, Leading zero omitted, Abs format (unit mm)*
G04 Created by KiCad (PCBNEW 7.0.9) date 2024-03-19 13:31:30*
%MOMM*%
%LPD*%
G01*
G04 APERTURE LIST*
G04 Aperture macros list*
%AMRoundRect*
0 Rectangle with rounded corners*
0 $1 Rounding radius*
0 $2 $3 $4 $5 $6 $7 $8 $9 X,Y pos of 4 corners*
0 Add a 4 corners polygon primitive as box body*
4,1,4,$2,$3,$4,$5,$6,$7,$8,$9,$2,$3,0*
0 Add four circle primitives for the rounded corners*
1,1,$1+$1,$2,$3*
1,1,$1+$1,$4,$5*
1,1,$1+$1,$6,$7*
1,1,$1+$1,$8,$9*
0 Add four rect primitives between the rounded corners*
20,1,$1+$1,$2,$3,$4,$5,0*
20,1,$1+$1,$4,$5,$6,$7,0*
20,1,$1+$1,$6,$7,$8,$9,0*
20,1,$1+$1,$8,$9,$2,$3,0*%
G04 Aperture macros list end*
%TA.AperFunction,ComponentPad*%
%ADD10C,1.650000*%
%TD*%
%TA.AperFunction,ComponentPad*%
%ADD11R,1.800000X1.800000*%
%TD*%
%TA.AperFunction,SMDPad,CuDef*%
%ADD12RoundRect,0.062500X0.062500X0.112500X-0.062500X0.112500X-0.062500X-0.112500X0.062500X-0.112500X0*%
%TD*%
%TA.AperFunction,ComponentPad*%
%ADD13C,3.000000*%
%TD*%
%TA.AperFunction,SMDPad,CuDef*%
%ADD14R,1.000000X0.950000*%
%TD*%
%TA.AperFunction,ComponentPad*%
%ADD15C,1.524000*%
%TD*%
%TA.AperFunction,SMDPad,CuDef*%
%ADD16RoundRect,0.060000X-0.240000X-0.060000X0.240000X-0.060000X0.240000X0.060000X-0.240000X0.060000X0*%
%TD*%
%TA.AperFunction,SMDPad,CuDef*%
%ADD17RoundRect,0.060000X-0.060000X-0.240000X0.060000X-0.240000X0.060000X0.240000X-0.060000X0.240000X0*%
%TD*%
%TA.AperFunction,ComponentPad*%
%ADD18R,0.800000X0.800000*%
%TD*%
%TA.AperFunction,ViaPad*%
%ADD19C,0.800000*%
%TD*%
%TA.AperFunction,Conductor*%
%ADD20C,0.250000*%
%TD*%
%ADD21C,0.350000*%
%ADD22C,0.300000*%
G04 APERTURE END LIST*
D10*
%TO.P,J1,1_1,1_1*%
%TO.N,Net-(A1-AIN0)*%
X196000000Y-83500000D03*
%TO.P,J1,1_2,1_2*%
X191000000Y-83500000D03*
%TO.P,J1,2_1,2_1*%
%TO.N,GND*%
X196000000Y-88500000D03*
%TO.P,J1,2_2,2_2*%
X191000000Y-88500000D03*
%TO.P,J1,3_1,3_1*%
%TO.N,Net-(A1-AIN1)*%
X196000000Y-93500000D03*
%TO.P,J1,3_2,3_2*%
X191000000Y-93500000D03*
%TO.P,J1,4_1,4_1*%
%TO.N,GND*%
X196000000Y-98500000D03*
%TO.P,J1,4_2,4_2*%
X191000000Y-98500000D03*
%TO.P,J1,5_1,5_1*%
%TO.N,Net-(A1-AIN2)*%
X196000000Y-103500000D03*
%TO.P,J1,5_2,5_2*%
X191000000Y-103500000D03*
%TO.P,J1,6_1,6_1*%
%TO.N,GND*%
X196000000Y-108500000D03*
%TO.P,J1,6_2,6_2*%
X191000000Y-108500000D03*
%TO.P,J1,7_1,7_1*%
%TO.N,Net-(A1-AIN3)*%
X196000000Y-113500000D03*
%TO.P,J1,7_2,7_2*%
X191000000Y-113500000D03*
%TO.P,J1,8_1,8_1*%
%TO.N,GND*%
X196000000Y-118500000D03*
%TO.P,J1,8_2,8_2*%
X191000000Y-118500000D03*
%TD*%
D11*
%TO.P,S2,1,Address*%
%TO.N,Net-(A1-A1)*%
X203500000Y-112500000D03*
%TO.P,S2,2,GND*%
%TO.N,GND*%
X206040000Y-112500000D03*
%TO.P,S2,3,VDD*%
%TO.N,+5V*%
X203500000Y-115040000D03*
%TO.P,S2,4,SDA*%
%TO.N,Net-(A1-SDA)*%
X200960000Y-112500000D03*
%TO.P,S2,5,SCL*%
%TO.N,Net-(A1-SCL)*%
X203500000Y-109960000D03*
%TD*%
D12*
%TO.P,C1,1*%
%TO.N,GND*%
X204000000Y-86000000D03*
%TO.P,C1,2*%
%TO.N,+5V*%
X203450000Y-86000000D03*
%TD*%
%TO.P,C2,1*%
%TO.N,GND*%
X204000000Y-87500000D03*
%TO.P,C2,2*%
%TO.N,+5V*%
X203450000Y-87500000D03*
%TD*%
D13*
%TO.P,REF1,*%
%TO.N,*%
X190500000Y-76500000D03*
%TD*%
D14*
%TO.P,R1,1*%
%TO.N,+5V*%
X203500000Y-90400000D03*
%TO.P,R1,2*%
%TO.N,Net-(A1-SDA)*%
X203500000Y-92000000D03*
%TD*%
D15*
%TO.P,U1,3,SDA*%
%TO.N,Net-(A1-SDA)*%
X197910000Y-77770000D03*
%TO.P,U1,4,5V*%
%TO.N,+5V*%
X197910000Y-75230000D03*
%TO.P,U1,5,SCL*%
%TO.N,Net-(A1-SCL)*%
X200450000Y-77770000D03*
%TO.P,U1,6,GND*%
%TO.N,GND*%
X200450000Y-75230000D03*
%TD*%
D16*
%TO.P,A1,1,^RESET*%
%TO.N,+5V*%
X202100000Y-96250000D03*
%TO.P,A1,2,DGND*%
%TO.N,GND*%
X202100000Y-96750000D03*
%TO.P,A1,3,AVSS*%
X202100000Y-97250000D03*
%TO.P,A1,4,AIN3*%
%TO.N,Net-(A1-AIN3)*%
X202100000Y-97750000D03*
D17*
%TO.P,A1,5,AIN2*%
%TO.N,Net-(A1-AIN2)*%
X202750000Y-98400000D03*
%TO.P,A1,6,REFN*%
%TO.N,unconnected-(A1-REFN-Pad6)*%
X203250000Y-98400000D03*
%TO.P,A1,7,REFP*%
%TO.N,unconnected-(A1-REFP-Pad7)*%
X203750000Y-98400000D03*
%TO.P,A1,8,AIN1*%
%TO.N,Net-(A1-AIN1)*%
X204250000Y-98400000D03*
D16*
%TO.P,A1,9,AIN0*%
%TO.N,Net-(A1-AIN0)*%
X204900000Y-97750000D03*
%TO.P,A1,10,AVDD*%
%TO.N,+5V*%
X204900000Y-97250000D03*
%TO.P,A1,11,DVDD*%
X204900000Y-96750000D03*
%TO.P,A1,12,^DRDY*%
%TO.N,Net-(A1-^DRDY)*%
X204900000Y-96250000D03*
D17*
%TO.P,A1,13,SDA*%
%TO.N,Net-(A1-SDA)*%
X204250000Y-95600000D03*
%TO.P,A1,14,SCL*%
%TO.N,Net-(A1-SCL)*%
X203750000Y-95600000D03*
%TO.P,A1,15,A0*%
%TO.N,Net-(A1-A0)*%
X203250000Y-95600000D03*
%TO.P,A1,16,A1*%
%TO.N,Net-(A1-A1)*%
X202750000Y-95600000D03*
D18*
%TO.P,A1,17,Thermal_pad*%
%TO.N,GND*%
X203500000Y-97000000D03*
%TD*%
D14*
%TO.P,R3,1*%
%TO.N,+5V*%
X205500000Y-90400000D03*
%TO.P,R3,2*%
%TO.N,Net-(A1-^DRDY)*%
X205500000Y-92000000D03*
%TD*%
%TO.P,R2,1*%
%TO.N,+5V*%
X201500000Y-90400000D03*
%TO.P,R2,2*%
%TO.N,Net-(A1-SCL)*%
X201500000Y-92000000D03*
%TD*%
D11*
%TO.P,S1,1,Address*%
%TO.N,Net-(A1-A0)*%
X203500000Y-104000000D03*
%TO.P,S1,2,GND*%
%TO.N,GND*%
X206040000Y-104000000D03*
%TO.P,S1,3,VDD*%
%TO.N,+5V*%
X203500000Y-106540000D03*
%TO.P,S1,4,SDA*%
%TO.N,Net-(A1-SDA)*%
X200960000Y-104000000D03*
%TO.P,S1,5,SCL*%
%TO.N,Net-(A1-SCL)*%
X203500000Y-101460000D03*
%TD*%
D13*
%TO.P,REF2,*%
%TO.N,*%
X190500000Y-125500000D03*
%TD*%
D19*
%TO.N,Net-(A1-A1)*%
X206829000Y-98959600D03*
X201650000Y-94738500D03*
%TO.N,Net-(A1-A0)*%
X202946000Y-94588500D03*
%TO.N,Net-(A1-SCL)*%
X200090000Y-95274200D03*
%TO.N,Net-(A1-SDA)*%
X198534000Y-101599000D03*
X198465000Y-93027600D03*
X203568000Y-93107000D03*
%TO.N,Net-(A1-AIN2)*%
X201495000Y-99278300D03*
%TO.N,GND*%
X204000000Y-85198700D03*
%TD*%
D20*
%TO.N,Net-(A1-SCL)*%
X201500000Y-93864000D02*
X201136000Y-93864000D01*
X200090000Y-94910000D02*
X200090000Y-95274200D01*
X201136000Y-93864000D02*
X200090000Y-94910000D01*
%TO.N,Net-(A1-A1)*%
X207267000Y-99397100D02*
X206829000Y-98959600D01*
X207267000Y-113579000D02*
X207267000Y-99397100D01*
X207119000Y-113727000D02*
X207267000Y-113579000D01*
X204957000Y-113727000D02*
X207119000Y-113727000D01*
X204727000Y-113497000D02*
X204957000Y-113727000D01*
X204727000Y-112500000D02*
X204727000Y-113497000D01*
X203500000Y-112500000D02*
X204727000Y-112500000D01*
X202512000Y-95600000D02*
X202750000Y-95600000D01*
X201650000Y-94738500D02*
X202512000Y-95600000D01*
%TO.N,Net-(A1-A0)*%
X203250000Y-94893000D02*
X203250000Y-95600000D01*
X202946000Y-94588500D02*
X203250000Y-94893000D01*
%TO.N,Net-(A1-SCL)*%
X203500000Y-102687000D02*
X203500000Y-101460000D01*
X202503000Y-102687000D02*
X203500000Y-102687000D01*
X202273000Y-102917000D02*
X202503000Y-102687000D01*
X202273000Y-107581000D02*
X202273000Y-102917000D01*
X203425000Y-108733000D02*
X202273000Y-107581000D01*
X203500000Y-108733000D02*
X203425000Y-108733000D01*
X203500000Y-109960000D02*
X203500000Y-108733000D01*
X201500000Y-92000000D02*
X201500000Y-93864000D01*
X200450000Y-90950000D02*
X201500000Y-92000000D01*
X200450000Y-77770000D02*
X200450000Y-90950000D01*
X203750000Y-94334400D02*
X203750000Y-95600000D01*
X203280000Y-93864000D02*
X203750000Y-94334400D01*
X201500000Y-93864000D02*
X203280000Y-93864000D01*
%TO.N,Net-(A1-SDA)*%
X200960000Y-104000000D02*
X200960000Y-112500000D01*
X204250000Y-93789400D02*
X203568000Y-93107000D01*
X204250000Y-95600000D02*
X204250000Y-93789400D01*
X203500000Y-93039400D02*
X203568000Y-93107000D01*
X203500000Y-92000000D02*
X203500000Y-93039400D01*
X198465000Y-78325000D02*
X198465000Y-93027600D01*
X197910000Y-77770000D02*
X198465000Y-78325000D01*
X198465000Y-101530000D02*
X198534000Y-101599000D01*
X198465000Y-93027600D02*
X198465000Y-101530000D01*
%TO.N,Net-(A1-^DRDY)*%
X205500000Y-92801900D02*
X205500000Y-92000000D01*
X204900000Y-93401900D02*
X205500000Y-92801900D01*
X204900000Y-96250000D02*
X204900000Y-93401900D01*
%TO.N,Net-(A1-AIN0)*%
X191000000Y-83500000D02*
X196000000Y-83500000D01*
X204900000Y-98777700D02*
X204900000Y-97750000D01*
X203743000Y-99934800D02*
X204900000Y-98777700D01*
X202746000Y-99934800D02*
X203743000Y-99934800D01*
X199289000Y-103392000D02*
X202746000Y-99934800D01*
X199289000Y-112482000D02*
X199289000Y-103392000D01*
X196630000Y-115141000D02*
X199289000Y-112482000D01*
X190359000Y-115141000D02*
X196630000Y-115141000D01*
X189389000Y-114171000D02*
X190359000Y-115141000D01*
X189389000Y-85110600D02*
X189389000Y-114171000D01*
X191000000Y-83500000D02*
X189389000Y-85110600D01*
%TO.N,Net-(A1-AIN1)*%
X204250000Y-98749500D02*
X204250000Y-98400000D01*
X203731000Y-99268800D02*
X204250000Y-98749500D01*
X202771000Y-99268800D02*
X203731000Y-99268800D01*
X198338000Y-103702000D02*
X202771000Y-99268800D01*
X198338000Y-112795000D02*
X198338000Y-103702000D01*
X196480000Y-114652000D02*
X198338000Y-112795000D01*
X190523000Y-114652000D02*
X196480000Y-114652000D01*
X189846000Y-113974000D02*
X190523000Y-114652000D01*
X189846000Y-94654500D02*
X189846000Y-113974000D01*
X191000000Y-93500000D02*
X189846000Y-94654500D01*
X191000000Y-93500000D02*
X196000000Y-93500000D01*
%TO.N,Net-(A1-AIN2)*%
X202373000Y-98400000D02*
X201495000Y-99278300D01*
X202750000Y-98400000D02*
X202373000Y-98400000D01*
%TO.N,Net-(A1-AIN3)*%
X196000000Y-113500000D02*
X191000000Y-113500000D01*
X197704000Y-111796000D02*
X196000000Y-113500000D01*
X197704000Y-103478000D02*
X197704000Y-111796000D01*
X199311000Y-101872000D02*
X197704000Y-103478000D01*
X199311000Y-100434000D02*
X199311000Y-101872000D01*
X201995000Y-97750000D02*
X199311000Y-100434000D01*
X202100000Y-97750000D02*
X201995000Y-97750000D01*
%TO.N,+5V*%
X203338000Y-90238200D02*
X203500000Y-90400000D01*
X203176000Y-90400000D02*
X203338000Y-90238200D01*
X201500000Y-90400000D02*
X203176000Y-90400000D01*
X204900000Y-96750000D02*
X204900000Y-97250000D01*
X203450000Y-87500000D02*
X203450000Y-86000000D01*
X204052000Y-96250000D02*
X202100000Y-96250000D01*
X204552000Y-96750000D02*
X204052000Y-96250000D01*
X204900000Y-96750000D02*
X204552000Y-96750000D01*
X206327000Y-91226900D02*
X205500000Y-90400000D01*
X206327000Y-95951200D02*
X206327000Y-91226900D01*
X205528000Y-96750000D02*
X206327000Y-95951200D01*
X203500000Y-105313000D02*
X203500000Y-106540000D01*
X204497000Y-105313000D02*
X203500000Y-105313000D01*
X204727000Y-105083000D02*
X204497000Y-105313000D01*
X204727000Y-101113000D02*
X204727000Y-105083000D01*
X205528000Y-100312000D02*
X204727000Y-101113000D01*
X205528000Y-96750000D02*
X205528000Y-100312000D01*
X203450000Y-90126400D02*
X203450000Y-87500000D01*
X203338000Y-90238200D02*
X203450000Y-90126400D01*
X199209000Y-76528800D02*
X197910000Y-75230000D01*
X199209000Y-95425500D02*
X199209000Y-76528800D01*
X200033000Y-96250000D02*
X199209000Y-95425500D01*
X202100000Y-96250000D02*
X200033000Y-96250000D01*
X204900000Y-96750000D02*
X205528000Y-96750000D01*
X205500000Y-90400000D02*
X203500000Y-90400000D01*
%TO.N,GND*%
X192172000Y-107328000D02*
X191000000Y-108500000D01*
X204000000Y-86000000D02*
X204000000Y-85198700D01*
X206040000Y-104000000D02*
X206040000Y-112500000D01*
X192172000Y-98500000D02*
X191000000Y-98500000D01*
X194828000Y-107328000D02*
X196000000Y-108500000D01*
X192172000Y-107328000D02*
X194828000Y-107328000D01*
X196000000Y-98500000D02*
X192172000Y-98500000D01*
X204000000Y-86000000D02*
X204000000Y-87500000D01*
X202100000Y-97250000D02*
X202100000Y-96750000D01*
X202773000Y-97000000D02*
X203500000Y-97000000D01*
X202523000Y-97250000D02*
X202773000Y-97000000D01*
X202100000Y-97250000D02*
X202523000Y-97250000D01*
%TD*%
%TA.AperFunction,Conductor*%
%TO.N,GND*%
G36*
X192002695Y-73000735D02*
G01*
X192045519Y-73004482D01*
X192171771Y-73016918D01*
X192191685Y-73020541D01*
X192258349Y-73038403D01*
X192351570Y-73066682D01*
X192367971Y-73072958D01*
X192435411Y-73104406D01*
X192438375Y-73105888D01*
X192450596Y-73112420D01*
X192522327Y-73150762D01*
X192528667Y-73154657D01*
X192594828Y-73200983D01*
X192598600Y-73203844D01*
X192670808Y-73263103D01*
X192675309Y-73267182D01*
X192732815Y-73324688D01*
X192736895Y-73329190D01*
X192796154Y-73401398D01*
X192799015Y-73405170D01*
X192845341Y-73471331D01*
X192849236Y-73477671D01*
X192894101Y-73561605D01*
X192895614Y-73564631D01*
X192927040Y-73632027D01*
X192933319Y-73648435D01*
X192961601Y-73741669D01*
X192979454Y-73808299D01*
X192983082Y-73828238D01*
X192995523Y-73954554D01*
X192999264Y-73997302D01*
X192999500Y-74002710D01*
X192999500Y-79087534D01*
X193029898Y-79259937D01*
X193089775Y-79424446D01*
X193177309Y-79576057D01*
X193289836Y-79710163D01*
X193423942Y-79822690D01*
X193423943Y-79822691D01*
X193423945Y-79822692D01*
X193575555Y-79910225D01*
X193740062Y-79970101D01*
X193912468Y-80000500D01*
X193912472Y-80000500D01*
X195587528Y-80000500D01*
X195587532Y-80000500D01*
X195759938Y-79970101D01*
X195924445Y-79910225D01*
X196076055Y-79822692D01*
X196210163Y-79710163D01*
X196322692Y-79576055D01*
X196410225Y-79424445D01*
X196470101Y-79259938D01*
X196500500Y-79087532D01*
X196500500Y-79000000D01*
X196500500Y-78999500D01*
X196500500Y-78293975D01*
X196520185Y-78226936D01*
X196572989Y-78181181D01*
X196642147Y-78171237D01*
X196705703Y-78200262D01*
X196736882Y-78241571D01*
X196812464Y-78403658D01*
X196812468Y-78403666D01*
X196939170Y-78584615D01*
X196939175Y-78584621D01*
X197095378Y-78740824D01*
X197095384Y-78740829D01*
X197276333Y-78867531D01*
X197276335Y-78867532D01*
X197276338Y-78867534D01*
X197476550Y-78960894D01*
X197689932Y-79018070D01*
X197726307Y-79021252D01*
X197791376Y-79046704D01*
X197832354Y-79103295D01*
X197839500Y-79144780D01*
X197839500Y-92328912D01*
X197819815Y-92395951D01*
X197807650Y-92411884D01*
X197732466Y-92495384D01*
X197637821Y-92659315D01*
X197637818Y-92659322D01*
X197579327Y-92839340D01*
X197579326Y-92839344D01*
X197559540Y-93027600D01*
X197579326Y-93215856D01*
X197581292Y-93221909D01*
X197637818Y-93395877D01*
X197637821Y-93395884D01*
X197732467Y-93559816D01*
X197775772Y-93607910D01*
X197807650Y-93643315D01*
X197837880Y-93706306D01*
X197839500Y-93726287D01*
X197839500Y-100976945D01*
X197819815Y-101043984D01*
X197807650Y-101059917D01*
X197801466Y-101066784D01*
X197706821Y-101230715D01*
X197706818Y-101230722D01*
X197648327Y-101410740D01*
X197648326Y-101410744D01*
X197628540Y-101599000D01*
X197648326Y-101787256D01*
X197648327Y-101787259D01*
X197706818Y-101967277D01*
X197706821Y-101967284D01*
X197801467Y-102131216D01*
X197851426Y-102186701D01*
X197895720Y-102235895D01*
X197925950Y-102298887D01*
X197917325Y-102368222D01*
X197891224Y-102406575D01*
X197376226Y-102921253D01*
X197314892Y-102954719D01*
X197245202Y-102949713D01*
X197189282Y-102907825D01*
X197176190Y-102885949D01*
X197152302Y-102834722D01*
X197152301Y-102834719D01*
X197152299Y-102834716D01*
X197152298Y-102834714D01*
X197019273Y-102644735D01*
X197019268Y-102644729D01*
X196855269Y-102480730D01*
X196784553Y-102431214D01*
X196665282Y-102347699D01*
X196455079Y-102249680D01*
X196455076Y-102249679D01*
X196455074Y-102249678D01*
X196231051Y-102189651D01*
X196231044Y-102189650D01*
X196000002Y-102169437D01*
X195999998Y-102169437D01*
X195768955Y-102189650D01*
X195768948Y-102189651D01*
X195544917Y-102249681D01*
X195334718Y-102347699D01*
X195334714Y-102347701D01*
X195144735Y-102480726D01*
X195144729Y-102480731D01*
X194980731Y-102644729D01*
X194980726Y-102644735D01*
X194847701Y-102834714D01*
X194847699Y-102834718D01*
X194749681Y-103044917D01*
X194689651Y-103268948D01*
X194689650Y-103268955D01*
X194669437Y-103499998D01*
X194669437Y-103500001D01*
X194689650Y-103731044D01*
X194689651Y-103731051D01*
X194749678Y-103955074D01*
X194749679Y-103955076D01*
X194749680Y-103955079D01*
X194847699Y-104165282D01*
X194980730Y-104355269D01*
X195144731Y-104519270D01*
X195334718Y-104652301D01*
X195544921Y-104750320D01*
X195768950Y-104810349D01*
X195933985Y-104824787D01*
X195999998Y-104830563D01*
X196000000Y-104830563D01*
X196000002Y-104830563D01*
X196061220Y-104825207D01*
X196231050Y-104810349D01*
X196455079Y-104750320D01*
X196665282Y-104652301D01*
X196855269Y-104519270D01*
X196866819Y-104507720D01*
X196928142Y-104474235D01*
X196997834Y-104479219D01*
X197053767Y-104521091D01*
X197078184Y-104586555D01*
X197078500Y-104595401D01*
X197078500Y-107723691D01*
X197058815Y-107790730D01*
X197042181Y-107811372D01*
X196525929Y-108327623D01*
X196523116Y-108314085D01*
X196453558Y-108179844D01*
X196350362Y-108069348D01*
X196221181Y-107990791D01*
X196169997Y-107976450D01*
X196743423Y-107403024D01*
X196743422Y-107403023D01*
X196665031Y-107348133D01*
X196665029Y-107348132D01*
X196454909Y-107250152D01*
X196454900Y-107250148D01*
X196230968Y-107190147D01*
X196230958Y-107190145D01*
X196000001Y-107169939D01*
X195999999Y-107169939D01*
X195769041Y-107190145D01*
X195769031Y-107190147D01*
X195545099Y-107250148D01*
X195545090Y-107250152D01*
X195334971Y-107348132D01*
X195334969Y-107348133D01*
X195256577Y-107403024D01*
X195256576Y-107403024D01*
X195828431Y-107974878D01*
X195711542Y-108025651D01*
X195594261Y-108121066D01*
X195507072Y-108244585D01*
X195476645Y-108330197D01*
X194903024Y-107756576D01*
X194903024Y-107756577D01*
X194848133Y-107834969D01*
X194848132Y-107834971D01*
X194750152Y-108045090D01*
X194750148Y-108045099D01*
X194690147Y-108269031D01*
X194690145Y-108269041D01*
X194669939Y-108499999D01*
X194669939Y-108500000D01*
X194690145Y-108730958D01*
X194690147Y-108730968D01*
X194750148Y-108954900D01*
X194750152Y-108954909D01*
X194848132Y-109165029D01*
X194848133Y-109165031D01*
X194903023Y-109243422D01*
X194903024Y-109243423D01*
X195474070Y-108672376D01*
X195476884Y-108685915D01*
X195546442Y-108820156D01*
X195649638Y-108930652D01*
X195778819Y-109009209D01*
X195830002Y-109023549D01*
X195256575Y-109596975D01*
X195334973Y-109651868D01*
X195545090Y-109749847D01*
X195545099Y-109749851D01*
X195769031Y-109809852D01*
X195769041Y-109809854D01*
X195999999Y-109830061D01*
X196000001Y-109830061D01*
X196230958Y-109809854D01*
X196230968Y-109809852D01*
X196454900Y-109749851D01*
X196454909Y-109749847D01*
X196665030Y-109651867D01*
X196743423Y-109596975D01*
X196171568Y-109025121D01*
X196288458Y-108974349D01*
X196405739Y-108878934D01*
X196492928Y-108755415D01*
X196523354Y-108669801D01*
X197042181Y-109188628D01*
X197075666Y-109249951D01*
X197078500Y-109276309D01*
X197078500Y-111485547D01*
X197058815Y-111552586D01*
X197042181Y-111573228D01*
X196435234Y-112180174D01*
X196373911Y-112213659D01*
X196315460Y-112212268D01*
X196231055Y-112189652D01*
X196231051Y-112189651D01*
X196231050Y-112189651D01*
X196231049Y-112189650D01*
X196231044Y-112189650D01*
X196000002Y-112169437D01*
X195999998Y-112169437D01*
X195768955Y-112189650D01*
X195768948Y-112189651D01*
X195544917Y-112249681D01*
X195334718Y-112347699D01*
X195334714Y-112347701D01*
X195144735Y-112480726D01*
X195144729Y-112480731D01*
X194980731Y-112644729D01*
X194980726Y-112644735D01*
X194856869Y-112821623D01*
X194802292Y-112865248D01*
X194755294Y-112874500D01*
X192244706Y-112874500D01*
X192177667Y-112854815D01*
X192143131Y-112821623D01*
X192019273Y-112644735D01*
X192019268Y-112644729D01*
X191855269Y-112480730D01*
X191798683Y-112441108D01*
X191665282Y-112347699D01*
X191455079Y-112249680D01*
X191455076Y-112249679D01*
X191455074Y-112249678D01*
X191231051Y-112189651D01*
X191231044Y-112189650D01*
X191000002Y-112169437D01*
X190999998Y-112169437D01*
X190768955Y-112189650D01*
X190768944Y-112189652D01*
X190627593Y-112227527D01*
X190557743Y-112225864D01*
X190499881Y-112186701D01*
X190472377Y-112122473D01*
X190471500Y-112107752D01*
X190471500Y-109891729D01*
X190491185Y-109824690D01*
X190543989Y-109778935D01*
X190613147Y-109768991D01*
X190627594Y-109771954D01*
X190769035Y-109809853D01*
X190769041Y-109809854D01*
X190999999Y-109830061D01*
X191000001Y-109830061D01*
X191230958Y-109809854D01*
X191230968Y-109809852D01*
X191454900Y-109749851D01*
X191454909Y-109749847D01*
X191665030Y-109651867D01*
X191743423Y-109596975D01*
X191171569Y-109025121D01*
X191288458Y-108974349D01*
X191405739Y-108878934D01*
X191492928Y-108755415D01*
X191523354Y-108669802D01*
X192096975Y-109243423D01*
X192151867Y-109165030D01*
X192249847Y-108954909D01*
X192249851Y-108954900D01*
X192309852Y-108730968D01*
X192309854Y-108730958D01*
X192330061Y-108500000D01*
X192330061Y-108499999D01*
X192309854Y-108269041D01*
X192309852Y-108269031D01*
X192249851Y-108045099D01*
X192249847Y-108045090D01*
X192151868Y-107834972D01*
X192096974Y-107756576D01*
X191525929Y-108327622D01*
X191523116Y-108314085D01*
X191453558Y-108179844D01*
X191350362Y-108069348D01*
X191221181Y-107990791D01*
X191169996Y-107976449D01*
X191743423Y-107403023D01*
X191665031Y-107348133D01*
X191665029Y-107348132D01*
X191454909Y-107250152D01*
X191454900Y-107250148D01*
X191230968Y-107190147D01*
X191230958Y-107190145D01*
X191000001Y-107169939D01*
X190999999Y-107169939D01*
X190769041Y-107190145D01*
X190769031Y-107190147D01*
X190627593Y-107228045D01*
X190557743Y-107226382D01*
X190499881Y-107187219D01*
X190472377Y-107122990D01*
X190471500Y-107108270D01*
X190471500Y-104892246D01*
X190491185Y-104825207D01*
X190543989Y-104779452D01*
X190613147Y-104769508D01*
X190627568Y-104772465D01*
X190768950Y-104810349D01*
X190933985Y-104824787D01*
X190999998Y-104830563D01*
X191000000Y-104830563D01*
X191000002Y-104830563D01*
X191061220Y-104825207D01*
X191231050Y-104810349D01*
X191455079Y-104750320D01*
X191665282Y-104652301D01*
X191855269Y-104519270D01*
X192019270Y-104355269D01*
X192152301Y-104165282D01*
X192250320Y-103955079D01*
X192310349Y-103731050D01*
X192330563Y-103500000D01*
X192310349Y-103268950D01*
X192250320Y-103044921D01*
X192152301Y-102834719D01*
X192152299Y-102834716D01*
X192152298Y-102834714D01*
X192019273Y-102644735D01*
X192019268Y-102644729D01*
X191855269Y-102480730D01*
X191784553Y-102431214D01*
X191665282Y-102347699D01*
X191455079Y-102249680D01*
X191455076Y-102249679D01*
X191455074Y-102249678D01*
X191231051Y-102189651D01*
X191231044Y-102189650D01*
X191000002Y-102169437D01*
X190999998Y-102169437D01*
X190768955Y-102189650D01*
X190768944Y-102189652D01*
X190627593Y-102227527D01*
X190557743Y-102225864D01*
X190499881Y-102186701D01*
X190472377Y-102122473D01*
X190471500Y-102107752D01*
X190471500Y-99891729D01*
X190491185Y-99824690D01*
X190543989Y-99778935D01*
X190613147Y-99768991D01*
X190627594Y-99771954D01*
X190769035Y-99809853D01*
X190769041Y-99809854D01*
X190999999Y-99830061D01*
X191000001Y-99830061D01*
X191230958Y-99809854D01*
X191230968Y-99809852D01*
X191454900Y-99749851D01*
X191454909Y-99749847D01*
X191665030Y-99651867D01*
X191743423Y-99596975D01*
X191171569Y-99025121D01*
X191288458Y-98974349D01*
X191405739Y-98878934D01*
X191492928Y-98755415D01*
X191523354Y-98669802D01*
X192096975Y-99243423D01*
X192151867Y-99165030D01*
X192249847Y-98954909D01*
X192249851Y-98954900D01*
X192309852Y-98730968D01*
X192309854Y-98730958D01*
X192330061Y-98500000D01*
X194669939Y-98500000D01*
X194690145Y-98730958D01*
X194690147Y-98730968D01*
X194750148Y-98954900D01*
X194750152Y-98954909D01*
X194848132Y-99165029D01*
X194848133Y-99165031D01*
X194903023Y-99243422D01*
X194903024Y-99243423D01*
X195474070Y-98672376D01*
X195476884Y-98685915D01*
X195546442Y-98820156D01*
X195649638Y-98930652D01*
X195778819Y-99009209D01*
X195830002Y-99023549D01*
X195256575Y-99596975D01*
X195334973Y-99651868D01*
X195545090Y-99749847D01*
X195545099Y-99749851D01*
X195769031Y-99809852D01*
X195769041Y-99809854D01*
X195999999Y-99830061D01*
X196000001Y-99830061D01*
X196230958Y-99809854D01*
X196230968Y-99809852D01*
X196454900Y-99749851D01*
X196454909Y-99749847D01*
X196665030Y-99651867D01*
X196743423Y-99596975D01*
X196171568Y-99025121D01*
X196288458Y-98974349D01*
X196405739Y-98878934D01*
X196492928Y-98755415D01*
X196523354Y-98669802D01*
X197096975Y-99243423D01*
X197151867Y-99165030D01*
X197249847Y-98954909D01*
X197249851Y-98954900D01*
X197309852Y-98730968D01*
X197309854Y-98730958D01*
X197330061Y-98500000D01*
X197330061Y-98499999D01*
X197309854Y-98269041D01*
X197309852Y-98269031D01*
X197249851Y-98045099D01*
X197249847Y-98045090D01*
X197151868Y-97834972D01*
X197096974Y-97756576D01*
X196525929Y-98327622D01*
X196523116Y-98314085D01*
X196453558Y-98179844D01*
X196350362Y-98069348D01*
X196221181Y-97990791D01*
X196169997Y-97976450D01*
X196743423Y-97403024D01*
X196743422Y-97403023D01*
X196665031Y-97348133D01*
X196665029Y-97348132D01*
X196454909Y-97250152D01*
X196454900Y-97250148D01*
X196230968Y-97190147D01*
X196230958Y-97190145D01*
X196000001Y-97169939D01*
X195999999Y-97169939D01*
X195769041Y-97190145D01*
X195769031Y-97190147D01*
X195545099Y-97250148D01*
X195545090Y-97250152D01*
X195334971Y-97348132D01*
X195334969Y-97348133D01*
X195256577Y-97403024D01*
X195256576Y-97403024D01*
X195828431Y-97974878D01*
X195711542Y-98025651D01*
X195594261Y-98121066D01*
X195507072Y-98244585D01*
X195476645Y-98330197D01*
X194903024Y-97756576D01*
X194903024Y-97756577D01*
X194848133Y-97834969D01*
X194848132Y-97834971D01*
X194750152Y-98045090D01*
X194750148Y-98045099D01*
X194690147Y-98269031D01*
X194690145Y-98269041D01*
X194669939Y-98499999D01*
X194669939Y-98500000D01*
X192330061Y-98500000D01*
X192330061Y-98499999D01*
X192309854Y-98269041D01*
X192309852Y-98269031D01*
X192249851Y-98045099D01*
X192249847Y-98045090D01*
X192151868Y-97834972D01*
X192096974Y-97756576D01*
X191525929Y-98327622D01*
X191523116Y-98314085D01*
X191453558Y-98179844D01*
X191350362Y-98069348D01*
X191221181Y-97990791D01*
X191169996Y-97976449D01*
X191743423Y-97403023D01*
X191665031Y-97348133D01*
X191665029Y-97348132D01*
X191454909Y-97250152D01*
X191454900Y-97250148D01*
X191230968Y-97190147D01*
X191230958Y-97190145D01*
X191000001Y-97169939D01*
X190999999Y-97169939D01*
X190769041Y-97190145D01*
X190769031Y-97190147D01*
X190627593Y-97228045D01*
X190557743Y-97226382D01*
X190499881Y-97187219D01*
X190472377Y-97122990D01*
X190471500Y-97108270D01*
X190471500Y-94964856D01*
X190491185Y-94897817D01*
X190507799Y-94877195D01*
X190565046Y-94819922D01*
X190626359Y-94786425D01*
X190684838Y-94787810D01*
X190768950Y-94810349D01*
X190933985Y-94824787D01*
X190999998Y-94830563D01*
X191000000Y-94830563D01*
X191000002Y-94830563D01*
X191057762Y-94825509D01*
X191231050Y-94810349D01*
X191455079Y-94750320D01*
X191665282Y-94652301D01*
X191855269Y-94519270D01*
X192019270Y-94355269D01*
X192143132Y-94178375D01*
X192197709Y-94134751D01*
X192244707Y-94125500D01*
X194755293Y-94125500D01*
X194822332Y-94145185D01*
X194856866Y-94178374D01*
X194980730Y-94355269D01*
X195144731Y-94519270D01*
X195334718Y-94652301D01*
X195544921Y-94750320D01*
X195768950Y-94810349D01*
X195933985Y-94824787D01*
X195999998Y-94830563D01*
X196000000Y-94830563D01*
X196000002Y-94830563D01*
X196057762Y-94825509D01*
X196231050Y-94810349D01*
X196455079Y-94750320D01*
X196665282Y-94652301D01*
X196855269Y-94519270D01*
X197019270Y-94355269D01*
X197152301Y-94165282D01*
X197250320Y-93955079D01*
X197310349Y-93731050D01*
X197330563Y-93500000D01*
X197310349Y-93268950D01*
X197250320Y-93044921D01*
X197152301Y-92834719D01*
X197152299Y-92834716D01*
X197152298Y-92834714D01*
X197019273Y-92644735D01*
X197019268Y-92644729D01*
X196855269Y-92480730D01*
X196797969Y-92440608D01*
X196665282Y-92347699D01*
X196455079Y-92249680D01*
X196455076Y-92249679D01*
X196455074Y-92249678D01*
X196231051Y-92189651D01*
X196231044Y-92189650D01*
X196000002Y-92169437D01*
X195999998Y-92169437D01*
X195768955Y-92189650D01*
X195768948Y-92189651D01*
X195544917Y-92249681D01*
X195334718Y-92347699D01*
X195334714Y-92347701D01*
X195144735Y-92480726D01*
X195144729Y-92480731D01*
X194980731Y-92644729D01*
X194980726Y-92644735D01*
X194856869Y-92821623D01*
X194802292Y-92865248D01*
X194755294Y-92874500D01*
X192244706Y-92874500D01*
X192177667Y-92854815D01*
X192143131Y-92821623D01*
X192127677Y-92799553D01*
X192019270Y-92644731D01*
X191855269Y-92480730D01*
X191665282Y-92347699D01*
X191455079Y-92249680D01*
X191455076Y-92249679D01*
X191455074Y-92249678D01*
X191231051Y-92189651D01*
X191231044Y-92189650D01*
X191000002Y-92169437D01*
X190999998Y-92169437D01*
X190768955Y-92189650D01*
X190768948Y-92189651D01*
X190544917Y-92249681D01*
X190334718Y-92347699D01*
X190334714Y-92347701D01*
X190209623Y-92435291D01*
X190143417Y-92457618D01*
X190075650Y-92440608D01*
X190027837Y-92389659D01*
X190014500Y-92333716D01*
X190014500Y-89665673D01*
X190034185Y-89598634D01*
X190086989Y-89552879D01*
X190156147Y-89542935D01*
X190209624Y-89564099D01*
X190334962Y-89651862D01*
X190334968Y-89651866D01*
X190545090Y-89749847D01*
X190545099Y-89749851D01*
X190769031Y-89809852D01*
X190769041Y-89809854D01*
X190999999Y-89830061D01*
X191000001Y-89830061D01*
X191230958Y-89809854D01*
X191230968Y-89809852D01*
X191454900Y-89749851D01*
X191454909Y-89749847D01*
X191665030Y-89651867D01*
X191743423Y-89596975D01*
X191171569Y-89025121D01*
X191288458Y-88974349D01*
X191405739Y-88878934D01*
X191492928Y-88755415D01*
X191523354Y-88669802D01*
X192096975Y-89243423D01*
X192151867Y-89165030D01*
X192249847Y-88954909D01*
X192249851Y-88954900D01*
X192309852Y-88730968D01*
X192309854Y-88730958D01*
X192330061Y-88500000D01*
X194669939Y-88500000D01*
X194690145Y-88730958D01*
X194690147Y-88730968D01*
X194750148Y-88954900D01*
X194750152Y-88954909D01*
X194848132Y-89165029D01*
X194848133Y-89165031D01*
X194903023Y-89243422D01*
X194903024Y-89243423D01*
X195474070Y-88672376D01*
X195476884Y-88685915D01*
X195546442Y-88820156D01*
X195649638Y-88930652D01*
X195778819Y-89009209D01*
X195830002Y-89023549D01*
X195256575Y-89596975D01*
X195334973Y-89651868D01*
X195545090Y-89749847D01*
X195545099Y-89749851D01*
X195769031Y-89809852D01*
X195769041Y-89809854D01*
X195999999Y-89830061D01*
X196000001Y-89830061D01*
X196230958Y-89809854D01*
X196230968Y-89809852D01*
X196454900Y-89749851D01*
X196454909Y-89749847D01*
X196665030Y-89651867D01*
X196743423Y-89596975D01*
X196171568Y-89025121D01*
X196288458Y-88974349D01*
X196405739Y-88878934D01*
X196492928Y-88755415D01*
X196523354Y-88669802D01*
X197096975Y-89243423D01*
X197151867Y-89165030D01*
X197249847Y-88954909D01*
X197249851Y-88954900D01*
X197309852Y-88730968D01*
X197309854Y-88730958D01*
X197330061Y-88500000D01*
X197330061Y-88499999D01*
X197309854Y-88269041D01*
X197309852Y-88269031D01*
X197249851Y-88045099D01*
X197249847Y-88045090D01*
X197151868Y-87834972D01*
X197096974Y-87756576D01*
X196525929Y-88327622D01*
X196523116Y-88314085D01*
X196453558Y-88179844D01*
X196350362Y-88069348D01*
X196221181Y-87990791D01*
X196169997Y-87976450D01*
X196743423Y-87403024D01*
X196743422Y-87403023D01*
X196665031Y-87348133D01*
X196665029Y-87348132D01*
X196454909Y-87250152D01*
X196454900Y-87250148D01*
X196230968Y-87190147D01*
X196230958Y-87190145D01*
X196000001Y-87169939D01*
X195999999Y-87169939D01*
X195769041Y-87190145D01*
X195769031Y-87190147D01*
X195545099Y-87250148D01*
X195545090Y-87250152D01*
X195334971Y-87348132D01*
X195334969Y-87348133D01*
X195256577Y-87403024D01*
X195256576Y-87403024D01*
X195828431Y-87974878D01*
X195711542Y-88025651D01*
X195594261Y-88121066D01*
X195507072Y-88244585D01*
X195476645Y-88330197D01*
X194903024Y-87756576D01*
X194903024Y-87756577D01*
X194848133Y-87834969D01*
X194848132Y-87834971D01*
X194750152Y-88045090D01*
X194750148Y-88045099D01*
X194690147Y-88269031D01*
X194690145Y-88269041D01*
X194669939Y-88499999D01*
X194669939Y-88500000D01*
X192330061Y-88500000D01*
X192330061Y-88499999D01*
X192309854Y-88269041D01*
X192309852Y-88269031D01*
X192249851Y-88045099D01*
X192249847Y-88045090D01*
X192151868Y-87834972D01*
X192096974Y-87756576D01*
X191525929Y-88327622D01*
X191523116Y-88314085D01*
X191453558Y-88179844D01*
X191350362Y-88069348D01*
X191221181Y-87990791D01*
X191169996Y-87976449D01*
X191743423Y-87403023D01*
X191665031Y-87348133D01*
X191665029Y-87348132D01*
X191454909Y-87250152D01*
X191454900Y-87250148D01*
X191230968Y-87190147D01*
X191230958Y-87190145D01*
X191000001Y-87169939D01*
X190999999Y-87169939D01*
X190769041Y-87190145D01*
X190769031Y-87190147D01*
X190545099Y-87250148D01*
X190545090Y-87250152D01*
X190334970Y-87348132D01*
X190334968Y-87348133D01*
X190209623Y-87435901D01*
X190143417Y-87458228D01*
X190075650Y-87441218D01*
X190027837Y-87390270D01*
X190014500Y-87334326D01*
X190014500Y-85421106D01*
X190034185Y-85354067D01*
X190050826Y-85333418D01*
X190564606Y-84819765D01*
X190625930Y-84786290D01*
X190684364Y-84787683D01*
X190768950Y-84810349D01*
X190933985Y-84824787D01*
X190999998Y-84830563D01*
X191000000Y-84830563D01*
X191000002Y-84830563D01*
X191057762Y-84825509D01*
X191231050Y-84810349D01*
X191455079Y-84750320D01*
X191665282Y-84652301D01*
X191855269Y-84519270D01*
X192019270Y-84355269D01*
X192143132Y-84178375D01*
X192197709Y-84134751D01*
X192244707Y-84125500D01*
X194755293Y-84125500D01*
X194822332Y-84145185D01*
X194856866Y-84178374D01*
X194980730Y-84355269D01*
X195144731Y-84519270D01*
X195334718Y-84652301D01*
X195544921Y-84750320D01*
X195768950Y-84810349D01*
X195933985Y-84824787D01*
X195999998Y-84830563D01*
X196000000Y-84830563D01*
X196000002Y-84830563D01*
X196057762Y-84825509D01*
X196231050Y-84810349D01*
X196455079Y-84750320D01*
X196665282Y-84652301D01*
X196855269Y-84519270D01*
X197019270Y-84355269D01*
X197152301Y-84165282D01*
X197250320Y-83955079D01*
X197310349Y-83731050D01*
X197330563Y-83500000D01*
X197310349Y-83268950D01*
X197250320Y-83044921D01*
X197152301Y-82834719D01*
X197152299Y-82834716D01*
X197152298Y-82834714D01*
X197019273Y-82644735D01*
X197019268Y-82644729D01*
X196855269Y-82480730D01*
X196855263Y-82480726D01*
X196665282Y-82347699D01*
X196455079Y-82249680D01*
X196455076Y-82249679D01*
X196455074Y-82249678D01*
X196231051Y-82189651D01*
X196231044Y-82189650D01*
X196000002Y-82169437D01*
X195999998Y-82169437D01*
X195768955Y-82189650D01*
X195768948Y-82189651D01*
X195544917Y-82249681D01*
X195334718Y-82347699D01*
X195334714Y-82347701D01*
X195144735Y-82480726D01*
X195144729Y-82480731D01*
X194980731Y-82644729D01*
X194980726Y-82644735D01*
X194856869Y-82821623D01*
X194802292Y-82865248D01*
X194755294Y-82874500D01*
X192244706Y-82874500D01*
X192177667Y-82854815D01*
X192143131Y-82821623D01*
X192019273Y-82644735D01*
X192019268Y-82644729D01*
X191855269Y-82480730D01*
X191855263Y-82480726D01*
X191665282Y-82347699D01*
X191455079Y-82249680D01*
X191455076Y-82249679D01*
X191455074Y-82249678D01*
X191231051Y-82189651D01*
X191231044Y-82189650D01*
X191000002Y-82169437D01*
X190999998Y-82169437D01*
X190768955Y-82189650D01*
X190768948Y-82189651D01*
X190544917Y-82249681D01*
X190334718Y-82347699D01*
X190334714Y-82347701D01*
X190144735Y-82480726D01*
X190144729Y-82480731D01*
X189980731Y-82644729D01*
X189980726Y-82644735D01*
X189847701Y-82834714D01*
X189847699Y-82834718D01*
X189749681Y-83044917D01*
X189689651Y-83268948D01*
X189689650Y-83268955D01*
X189669437Y-83499998D01*
X189669437Y-83500001D01*
X189689650Y-83731044D01*
X189689652Y-83731055D01*
X189712222Y-83815287D01*
X189710559Y-83885137D01*
X189680117Y-83935072D01*
X189005239Y-84609784D01*
X188992953Y-84619627D01*
X188993132Y-84619843D01*
X188987121Y-84624815D01*
X188939786Y-84675221D01*
X188918933Y-84696069D01*
X188918924Y-84696079D01*
X188914647Y-84701591D01*
X188910864Y-84706019D01*
X188878941Y-84740012D01*
X188869305Y-84757540D01*
X188858616Y-84773809D01*
X188846368Y-84789594D01*
X188846366Y-84789597D01*
X188827841Y-84832389D01*
X188825276Y-84837626D01*
X188802803Y-84878508D01*
X188802802Y-84878510D01*
X188797830Y-84897871D01*
X188791525Y-84916282D01*
X188783585Y-84934626D01*
X188783583Y-84934631D01*
X188776281Y-84980696D01*
X188775097Y-84986408D01*
X188763500Y-85031576D01*
X188763500Y-85051565D01*
X188761971Y-85070977D01*
X188758842Y-85090717D01*
X188763225Y-85137147D01*
X188763500Y-85142978D01*
X188763500Y-114088255D01*
X188761775Y-114103872D01*
X188762061Y-114103899D01*
X188761326Y-114111665D01*
X188763500Y-114180814D01*
X188763500Y-114210343D01*
X188763501Y-114210360D01*
X188764368Y-114217231D01*
X188764826Y-114223050D01*
X188766290Y-114269624D01*
X188766291Y-114269627D01*
X188771880Y-114288867D01*
X188775824Y-114307911D01*
X188778336Y-114327792D01*
X188788688Y-114353939D01*
X188795490Y-114371119D01*
X188797382Y-114376647D01*
X188810381Y-114421388D01*
X188820580Y-114438634D01*
X188829138Y-114456103D01*
X188836514Y-114474732D01*
X188863898Y-114512423D01*
X188867106Y-114517307D01*
X188890827Y-114557416D01*
X188890833Y-114557424D01*
X188904990Y-114571580D01*
X188917628Y-114586376D01*
X188929405Y-114602586D01*
X188929406Y-114602587D01*
X188965309Y-114632288D01*
X188969620Y-114636210D01*
X189848765Y-115515356D01*
X189858197Y-115524788D01*
X189868022Y-115537051D01*
X189868243Y-115536869D01*
X189873214Y-115542878D01*
X189894043Y-115562437D01*
X189923635Y-115590226D01*
X189944529Y-115611120D01*
X189950011Y-115615373D01*
X189954443Y-115619157D01*
X189988418Y-115651062D01*
X190005976Y-115660714D01*
X190022235Y-115671395D01*
X190038064Y-115683673D01*
X190080838Y-115702182D01*
X190086056Y-115704738D01*
X190126908Y-115727197D01*
X190146316Y-115732180D01*
X190164717Y-115738480D01*
X190183104Y-115746437D01*
X190226488Y-115753308D01*
X190229119Y-115753725D01*
X190234839Y-115754909D01*
X190279981Y-115766500D01*
X190300016Y-115766500D01*
X190319414Y-115768026D01*
X190339194Y-115771159D01*
X190339195Y-115771160D01*
X190339195Y-115771159D01*
X190339196Y-115771160D01*
X190385584Y-115766775D01*
X190391422Y-115766500D01*
X196547257Y-115766500D01*
X196562877Y-115768224D01*
X196562904Y-115767939D01*
X196570660Y-115768671D01*
X196570667Y-115768673D01*
X196639814Y-115766500D01*
X196669350Y-115766500D01*
X196676228Y-115765630D01*
X196682041Y-115765172D01*
X196728627Y-115763709D01*
X196747869Y-115758117D01*
X196766912Y-115754174D01*
X196786792Y-115751664D01*
X196830122Y-115734507D01*
X196835646Y-115732617D01*
X196839396Y-115731527D01*
X196880390Y-115719618D01*
X196897629Y-115709422D01*
X196915103Y-115700862D01*
X196933727Y-115693488D01*
X196933727Y-115693487D01*
X196933732Y-115693486D01*
X196971449Y-115666082D01*
X196976305Y-115662892D01*
X197016420Y-115639170D01*
X197030589Y-115624999D01*
X197045379Y-115612368D01*
X197061587Y-115600594D01*
X197091299Y-115564676D01*
X197095212Y-115560376D01*
X199347821Y-113307768D01*
X199409142Y-113274285D01*
X199478834Y-113279269D01*
X199534767Y-113321141D01*
X199559184Y-113386605D01*
X199559500Y-113395449D01*
X199559500Y-113447869D01*
X199559501Y-113447876D01*
X199565908Y-113507483D01*
X199616202Y-113642328D01*
X199616206Y-113642335D01*
X199702452Y-113757544D01*
X199702455Y-113757547D01*
X199817664Y-113843793D01*
X199817671Y-113843797D01*
X199952517Y-113894091D01*
X199952516Y-113894091D01*
X199959444Y-113894835D01*
X200012127Y-113900500D01*
X201907872Y-113900499D01*
X201967483Y-113894091D01*
X201967484Y-113894090D01*
X201969592Y-113893864D01*
X202038352Y-113906271D01*
X202089488Y-113953881D01*
X202106767Y-114021581D01*
X202106136Y-114030408D01*
X202105909Y-114032516D01*
X202105909Y-114032517D01*
X202099500Y-114092127D01*
X202099500Y-114092131D01*
X202099500Y-114092132D01*
X202099500Y-115987870D01*
X202099501Y-115987876D01*
X202105908Y-116047483D01*
X202156202Y-116182328D01*
X202156206Y-116182335D01*
X202242452Y-116297544D01*
X202242455Y-116297547D01*
X202357664Y-116383793D01*
X202357671Y-116383797D01*
X202492517Y-116434091D01*
X202492516Y-116434091D01*
X202499444Y-116434835D01*
X202552127Y-116440500D01*
X204447872Y-116440499D01*
X204507483Y-116434091D01*
X204642331Y-116383796D01*
X204757546Y-116297546D01*
X204843796Y-116182331D01*
X204894091Y-116047483D01*
X204900500Y-115987873D01*
X204900499Y-114476499D01*
X204920184Y-114409461D01*
X204972987Y-114363706D01*
X205024499Y-114352500D01*
X207036257Y-114352500D01*
X207051877Y-114354224D01*
X207051904Y-114353939D01*
X207059660Y-114354671D01*
X207059667Y-114354673D01*
X207128814Y-114352500D01*
X207158350Y-114352500D01*
X207165228Y-114351630D01*
X207171041Y-114351172D01*
X207217627Y-114349709D01*
X207236869Y-114344117D01*
X207255912Y-114340174D01*
X207275792Y-114337664D01*
X207319122Y-114320507D01*
X207324646Y-114318617D01*
X207328396Y-114317527D01*
X207369390Y-114305618D01*
X207386629Y-114295422D01*
X207404103Y-114286862D01*
X207422727Y-114279488D01*
X207422727Y-114279487D01*
X207422732Y-114279486D01*
X207460449Y-114252082D01*
X207465305Y-114248892D01*
X207505420Y-114225170D01*
X207519589Y-114210999D01*
X207534379Y-114198368D01*
X207550587Y-114186594D01*
X207580299Y-114150676D01*
X207584212Y-114146376D01*
X207650786Y-114079802D01*
X207663048Y-114069980D01*
X207662865Y-114069759D01*
X207668867Y-114064792D01*
X207668877Y-114064786D01*
X207716241Y-114014348D01*
X207737120Y-113993470D01*
X207741373Y-113987986D01*
X207745150Y-113983563D01*
X207777062Y-113949582D01*
X207777061Y-113949582D01*
X207782405Y-113943893D01*
X207783690Y-113945100D01*
X207831340Y-113908344D01*
X207900952Y-113902354D01*
X207962752Y-113934949D01*
X207997120Y-113995782D01*
X208000347Y-114023895D01*
X207999507Y-128875507D01*
X207979819Y-128942545D01*
X207927012Y-128988297D01*
X207875507Y-128999500D01*
X190001624Y-128999500D01*
X189998378Y-128999415D01*
X189866617Y-128992509D01*
X189682985Y-128982196D01*
X189676758Y-128981530D01*
X189524369Y-128957394D01*
X189361835Y-128929778D01*
X189356171Y-128928541D01*
X189203297Y-128887579D01*
X189048273Y-128842916D01*
X189043217Y-128841221D01*
X188893829Y-128783877D01*
X188745997Y-128722643D01*
X188741575Y-128720604D01*
X188598078Y-128647488D01*
X188458531Y-128570364D01*
X188454767Y-128568106D01*
X188401875Y-128533758D01*
X188319127Y-128480019D01*
X188189243Y-128387862D01*
X188186102Y-128385480D01*
X188061260Y-128284385D01*
X188058964Y-128282431D01*
X187941277Y-128177260D01*
X187938750Y-128174870D01*
X187825128Y-128061248D01*
X187822738Y-128058721D01*
X187717567Y-127941034D01*
X187715613Y-127938738D01*
X187676848Y-127890867D01*
X187614510Y-127813886D01*
X187612136Y-127810755D01*
X187519980Y-127680872D01*
X187487406Y-127630715D01*
X187431882Y-127545215D01*
X187429641Y-127541480D01*
X187364918Y-127424371D01*
X187352511Y-127401921D01*
X187312899Y-127324180D01*
X187279388Y-127258412D01*
X187277355Y-127254000D01*
X187216122Y-127106170D01*
X187158769Y-126956759D01*
X187157082Y-126951724D01*
X187139046Y-126889122D01*
X187112414Y-126796679D01*
X187107316Y-126777652D01*
X187071453Y-126643811D01*
X187070226Y-126638194D01*
X187042601Y-126475606D01*
X187018465Y-126323212D01*
X187017803Y-126317027D01*
X187007503Y-126133628D01*
X187000584Y-126001620D01*
X187000500Y-125998377D01*
X187000500Y-125500001D01*
X188494390Y-125500001D01*
X188514804Y-125785433D01*
X188575628Y-126065037D01*
X188575630Y-126065043D01*
X188575631Y-126065046D01*
X188668312Y-126313533D01*
X188675635Y-126333166D01*
X188812770Y-126584309D01*
X188812775Y-126584317D01*
X188984254Y-126813387D01*
X188984270Y-126813405D01*
X189186594Y-127015729D01*
X189186612Y-127015745D01*
X189415682Y-127187224D01*
X189415690Y-127187229D01*
X189666833Y-127324364D01*
X189666832Y-127324364D01*
X189666836Y-127324365D01*
X189666839Y-127324367D01*
X189934954Y-127424369D01*
X189934960Y-127424370D01*
X189934962Y-127424371D01*
X190214566Y-127485195D01*
X190214568Y-127485195D01*
X190214572Y-127485196D01*
X190468220Y-127503337D01*
X190499999Y-127505610D01*
X190500000Y-127505610D01*
X190500001Y-127505610D01*
X190528595Y-127503564D01*
X190785428Y-127485196D01*
X191065046Y-127424369D01*
X191333161Y-127324367D01*
X191584315Y-127187226D01*
X191813395Y-127015739D01*
X192015739Y-126813395D01*
X192187226Y-126584315D01*
X192324367Y-126333161D01*
X192424369Y-126065046D01*
X192485196Y-125785428D01*
X192505610Y-125500000D01*
X192485196Y-125214572D01*
X192424369Y-124934954D01*
X192324367Y-124666839D01*
X192187226Y-124415685D01*
X192187224Y-124415682D01*
X192015745Y-124186612D01*
X192015729Y-124186594D01*
X191813405Y-123984270D01*
X191813387Y-123984254D01*
X191584317Y-123812775D01*
X191584309Y-123812770D01*
X191333166Y-123675635D01*
X191333167Y-123675635D01*
X191225915Y-123635632D01*
X191065046Y-123575631D01*
X191065043Y-123575630D01*
X191065037Y-123575628D01*
X190785433Y-123514804D01*
X190500001Y-123494390D01*
X190499999Y-123494390D01*
X190214566Y-123514804D01*
X189934962Y-123575628D01*
X189666833Y-123675635D01*
X189415690Y-123812770D01*
X189415682Y-123812775D01*
X189186612Y-123984254D01*
X189186594Y-123984270D01*
X188984270Y-124186594D01*
X188984254Y-124186612D01*
X188812775Y-124415682D01*
X188812770Y-124415690D01*
X188675635Y-124666833D01*
X188575628Y-124934962D01*
X188514804Y-125214566D01*
X188494390Y-125499998D01*
X188494390Y-125500001D01*
X187000500Y-125500001D01*
X187000500Y-118500000D01*
X189669939Y-118500000D01*
X189690145Y-118730958D01*
X189690147Y-118730968D01*
X189750148Y-118954900D01*
X189750152Y-118954909D01*
X189848132Y-119165029D01*
X189848133Y-119165031D01*
X189903023Y-119243422D01*
X189903024Y-119243423D01*
X190474070Y-118672376D01*
X190476884Y-118685915D01*
X190546442Y-118820156D01*
X190649638Y-118930652D01*
X190778819Y-119009209D01*
X190830002Y-119023549D01*
X190256575Y-119596975D01*
X190334973Y-119651868D01*
X190545090Y-119749847D01*
X190545099Y-119749851D01*
X190769031Y-119809852D01*
X190769041Y-119809854D01*
X190999999Y-119830061D01*
X191000001Y-119830061D01*
X191230958Y-119809854D01*
X191230968Y-119809852D01*
X191454900Y-119749851D01*
X191454909Y-119749847D01*
X191665030Y-119651867D01*
X191743423Y-119596975D01*
X191171568Y-119025121D01*
X191288458Y-118974349D01*
X191405739Y-118878934D01*
X191492928Y-118755415D01*
X191523354Y-118669802D01*
X192096975Y-119243423D01*
X192151867Y-119165030D01*
X192249847Y-118954909D01*
X192249851Y-118954900D01*
X192309852Y-118730968D01*
X192309854Y-118730958D01*
X192330061Y-118500000D01*
X194669939Y-118500000D01*
X194690145Y-118730958D01*
X194690147Y-118730968D01*
X194750148Y-118954900D01*
X194750152Y-118954909D01*
X194848132Y-119165029D01*
X194848133Y-119165031D01*
X194903023Y-119243422D01*
X194903024Y-119243423D01*
X195474070Y-118672376D01*
X195476884Y-118685915D01*
X195546442Y-118820156D01*
X195649638Y-118930652D01*
X195778819Y-119009209D01*
X195830002Y-119023549D01*
X195256575Y-119596975D01*
X195334973Y-119651868D01*
X195545090Y-119749847D01*
X195545099Y-119749851D01*
X195769031Y-119809852D01*
X195769041Y-119809854D01*
X195999999Y-119830061D01*
X196000001Y-119830061D01*
X196230958Y-119809854D01*
X196230968Y-119809852D01*
X196454900Y-119749851D01*
X196454909Y-119749847D01*
X196665030Y-119651867D01*
X196743423Y-119596975D01*
X196171568Y-119025121D01*
X196288458Y-118974349D01*
X196405739Y-118878934D01*
X196492928Y-118755415D01*
X196523354Y-118669802D01*
X197096975Y-119243423D01*
X197151867Y-119165030D01*
X197249847Y-118954909D01*
X197249851Y-118954900D01*
X197309852Y-118730968D01*
X197309854Y-118730958D01*
X197330061Y-118500000D01*
X197330061Y-118499999D01*
X197309854Y-118269041D01*
X197309852Y-118269031D01*
X197249851Y-118045099D01*
X197249847Y-118045090D01*
X197151868Y-117834972D01*
X197096974Y-117756576D01*
X196525929Y-118327622D01*
X196523116Y-118314085D01*
X196453558Y-118179844D01*
X196350362Y-118069348D01*
X196221181Y-117990791D01*
X196169997Y-117976450D01*
X196743423Y-117403024D01*
X196743422Y-117403023D01*
X196665031Y-117348133D01*
X196665029Y-117348132D01*
X196454909Y-117250152D01*
X196454900Y-117250148D01*
X196230968Y-117190147D01*
X196230958Y-117190145D01*
X196000001Y-117169939D01*
X195999999Y-117169939D01*
X195769041Y-117190145D01*
X195769031Y-117190147D01*
X195545099Y-117250148D01*
X195545090Y-117250152D01*
X195334971Y-117348132D01*
X195334969Y-117348133D01*
X195256577Y-117403024D01*
X195256576Y-117403024D01*
X195828431Y-117974878D01*
X195711542Y-118025651D01*
X195594261Y-118121066D01*
X195507072Y-118244585D01*
X195476645Y-118330197D01*
X194903024Y-117756576D01*
X194903024Y-117756577D01*
X194848133Y-117834969D01*
X194848132Y-117834971D01*
X194750152Y-118045090D01*
X194750148Y-118045099D01*
X194690147Y-118269031D01*
X194690145Y-118269041D01*
X194669939Y-118499999D01*
X194669939Y-118500000D01*
X192330061Y-118500000D01*
X192330061Y-118499999D01*
X192309854Y-118269041D01*
X192309852Y-118269031D01*
X192249851Y-118045099D01*
X192249847Y-118045090D01*
X192151868Y-117834972D01*
X192096974Y-117756576D01*
X191525929Y-118327622D01*
X191523116Y-118314085D01*
X191453558Y-118179844D01*
X191350362Y-118069348D01*
X191221181Y-117990791D01*
X191169997Y-117976450D01*
X191743423Y-117403024D01*
X191743422Y-117403023D01*
X191665031Y-117348133D01*
X191665029Y-117348132D01*
X191454909Y-117250152D01*
X191454900Y-117250148D01*
X191230968Y-117190147D01*
X191230958Y-117190145D01*
X191000001Y-117169939D01*
X190999999Y-117169939D01*
X190769041Y-117190145D01*
X190769031Y-117190147D01*
X190545099Y-117250148D01*
X190545090Y-117250152D01*
X190334971Y-117348132D01*
X190334969Y-117348133D01*
X190256577Y-117403024D01*
X190256576Y-117403024D01*
X190828431Y-117974878D01*
X190711542Y-118025651D01*
X190594261Y-118121066D01*
X190507072Y-118244585D01*
X190476645Y-118330197D01*
X189903024Y-117756576D01*
X189903024Y-117756577D01*
X189848133Y-117834969D01*
X189848132Y-117834971D01*
X189750152Y-118045090D01*
X189750148Y-118045099D01*
X189690147Y-118269031D01*
X189690145Y-118269041D01*
X189669939Y-118499999D01*
X189669939Y-118500000D01*
X187000500Y-118500000D01*
X187000500Y-76500001D01*
X188494390Y-76500001D01*
X188514804Y-76785433D01*
X188575628Y-77065037D01*
X188575630Y-77065043D01*
X188575631Y-77065046D01*
X188662011Y-77296639D01*
X188675635Y-77333166D01*
X188812770Y-77584309D01*
X188812775Y-77584317D01*
X188984254Y-77813387D01*
X188984270Y-77813405D01*
X189186594Y-78015729D01*
X189186612Y-78015745D01*
X189415682Y-78187224D01*
X189415690Y-78187229D01*
X189666833Y-78324364D01*
X189666832Y-78324364D01*
X189666836Y-78324365D01*
X189666839Y-78324367D01*
X189934954Y-78424369D01*
X189934960Y-78424370D01*
X189934962Y-78424371D01*
X190214566Y-78485195D01*
X190214568Y-78485195D01*
X190214572Y-78485196D01*
X190468220Y-78503337D01*
X190499999Y-78505610D01*
X190500000Y-78505610D01*
X190500001Y-78505610D01*
X190528595Y-78503564D01*
X190785428Y-78485196D01*
X190817074Y-78478312D01*
X191065037Y-78424371D01*
X191065037Y-78424370D01*
X191065046Y-78424369D01*
X191333161Y-78324367D01*
X191584315Y-78187226D01*
X191813395Y-78015739D01*
X192015739Y-77813395D01*
X192187226Y-77584315D01*
X192324367Y-77333161D01*
X192424369Y-77065046D01*
X192485196Y-76785428D01*
X192505610Y-76500000D01*
X192504855Y-76489450D01*
X192500875Y-76433790D01*
X192485196Y-76214572D01*
X192482206Y-76200829D01*
X192424371Y-75934962D01*
X192424370Y-75934960D01*
X192424369Y-75934954D01*
X192324367Y-75666839D01*
X192322516Y-75663450D01*
X192187229Y-75415690D01*
X192187224Y-75415682D01*
X192015745Y-75186612D01*
X192015729Y-75186594D01*
X191813405Y-74984270D01*
X191813387Y-74984254D01*
X191584317Y-74812775D01*
X191584309Y-74812770D01*
X191333166Y-74675635D01*
X191333167Y-74675635D01*
X191225915Y-74635632D01*
X191065046Y-74575631D01*
X191065043Y-74575630D01*
X191065037Y-74575628D01*
X190785433Y-74514804D01*
X190500001Y-74494390D01*
X190499999Y-74494390D01*
X190214566Y-74514804D01*
X189934962Y-74575628D01*
X189666833Y-74675635D01*
X189415690Y-74812770D01*
X189415682Y-74812775D01*
X189186612Y-74984254D01*
X189186594Y-74984270D01*
X188984270Y-75186594D01*
X188984254Y-75186612D01*
X188812775Y-75415682D01*
X188812770Y-75415690D01*
X188675635Y-75666833D01*
X188575628Y-75934962D01*
X188514804Y-76214566D01*
X188494390Y-76499998D01*
X188494390Y-76500001D01*
X187000500Y-76500001D01*
X187000500Y-76001622D01*
X187000585Y-75998376D01*
X187007497Y-75866489D01*
X187007656Y-75863666D01*
X187017803Y-75682968D01*
X187018464Y-75676791D01*
X187042611Y-75524331D01*
X187070227Y-75361796D01*
X187071451Y-75356196D01*
X187112425Y-75203279D01*
X187157083Y-75048268D01*
X187158764Y-75043254D01*
X187216127Y-74893815D01*
X187277366Y-74745972D01*
X187279379Y-74741606D01*
X187352511Y-74598078D01*
X187364918Y-74575628D01*
X187429655Y-74458494D01*
X187431867Y-74454808D01*
X187519980Y-74319127D01*
X187562518Y-74259175D01*
X187612154Y-74189220D01*
X187614486Y-74186143D01*
X187715655Y-74061209D01*
X187717537Y-74058998D01*
X187822773Y-73941239D01*
X187825092Y-73938787D01*
X187938787Y-73825092D01*
X187941239Y-73822773D01*
X188058998Y-73717537D01*
X188061209Y-73715655D01*
X188186143Y-73614486D01*
X188189220Y-73612154D01*
X188319127Y-73519980D01*
X188329046Y-73513537D01*
X188454808Y-73431867D01*
X188458494Y-73429655D01*
X188598078Y-73352511D01*
X188643847Y-73329190D01*
X188741606Y-73279379D01*
X188745972Y-73277366D01*
X188893815Y-73216127D01*
X189043254Y-73158764D01*
X189048268Y-73157083D01*
X189203279Y-73112425D01*
X189356196Y-73071451D01*
X189361796Y-73070227D01*
X189524284Y-73042618D01*
X189676791Y-73018464D01*
X189682968Y-73017803D01*
X189866566Y-73007493D01*
X189998380Y-73000584D01*
X190001622Y-73000500D01*
X191997293Y-73000500D01*
X192002695Y-73000735D01*
G37*
%TD.AperFunction*%
%TA.AperFunction,Conductor*%
G36*
X206290000Y-105400000D02*
G01*
X206517500Y-105400000D01*
X206584539Y-105419685D01*
X206630294Y-105472489D01*
X206641500Y-105524000D01*
X206641500Y-110976000D01*
X206621815Y-111043039D01*
X206569011Y-111088794D01*
X206517500Y-111100000D01*
X206290000Y-111100000D01*
X206290000Y-112064498D01*
X206182315Y-112015320D01*
X206075763Y-112000000D01*
X206004237Y-112000000D01*
X205897685Y-112015320D01*
X205790000Y-112064498D01*
X205790000Y-111100000D01*
X205092172Y-111100000D01*
X205030353Y-111106646D01*
X204961593Y-111094240D01*
X204910456Y-111046629D01*
X204893177Y-110978930D01*
X204893809Y-110970099D01*
X204894089Y-110967485D01*
X204894091Y-110967483D01*
X204900500Y-110907873D01*
X204900499Y-109012128D01*
X204894091Y-108952517D01*
X204866646Y-108878934D01*
X204843797Y-108817671D01*
X204843793Y-108817664D01*
X204757547Y-108702455D01*
X204757544Y-108702452D01*
X204642335Y-108616206D01*
X204642328Y-108616202D01*
X204507482Y-108565908D01*
X204507483Y-108565908D01*
X204447883Y-108559501D01*
X204447881Y-108559500D01*
X204447873Y-108559500D01*
X204447865Y-108559500D01*
X204191406Y-108559500D01*
X204124367Y-108539815D01*
X204078612Y-108487011D01*
X204073475Y-108473818D01*
X204070467Y-108464559D01*
X204066089Y-108457661D01*
X204055495Y-108436868D01*
X204052486Y-108429268D01*
X204018736Y-108382815D01*
X204016545Y-108379592D01*
X203985785Y-108331122D01*
X203979834Y-108325534D01*
X203964398Y-108308025D01*
X203959594Y-108301413D01*
X203959591Y-108301411D01*
X203959591Y-108301410D01*
X203915361Y-108264820D01*
X203912438Y-108262243D01*
X203870585Y-108222940D01*
X203870577Y-108222934D01*
X203863415Y-108218997D01*
X203844114Y-108205880D01*
X203837824Y-108200676D01*
X203785876Y-108176231D01*
X203782401Y-108174460D01*
X203780030Y-108173157D01*
X203730769Y-108123607D01*
X203716117Y-108055291D01*
X203740726Y-107989898D01*
X203796782Y-107948191D01*
X203839775Y-107940499D01*
X204447871Y-107940499D01*
X204447872Y-107940499D01*
X204507483Y-107934091D01*
X204642331Y-107883796D01*
X204757546Y-107797546D01*
X204843796Y-107682331D01*
X204894091Y-107547483D01*
X204900500Y-107487873D01*
X204900499Y-105851188D01*
X204920184Y-105784150D01*
X204928953Y-105772151D01*
X204958293Y-105736683D01*
X204962218Y-105732371D01*
X205110791Y-105583798D01*
X205123050Y-105573979D01*
X205122867Y-105573758D01*
X205128876Y-105568787D01*
X205176227Y-105518363D01*
X205197115Y-105497476D01*
X205197115Y-105497475D01*
X205197120Y-105497471D01*
X205201379Y-105491978D01*
X205205152Y-105487561D01*
X205237062Y-105453582D01*
X205237065Y-105453576D01*
X205238853Y-105451117D01*
X205240754Y-105449650D01*
X205242406Y-105447892D01*
X205242689Y-105448158D01*
X205294182Y-105408450D01*
X205339173Y-105400000D01*
X205790000Y-105400000D01*
X205790000Y-104435501D01*
X205897685Y-104484680D01*
X206004237Y-104500000D01*
X206075763Y-104500000D01*
X206182315Y-104484680D01*
X206290000Y-104435501D01*
X206290000Y-105400000D01*
G37*
%TD.AperFunction*%
%TA.AperFunction,Conductor*%
G36*
X206350385Y-99724945D02*
G01*
X206376265Y-99743748D01*
X206376270Y-99743751D01*
X206549191Y-99820742D01*
X206555372Y-99822750D01*
X206554462Y-99825550D01*
X206604662Y-99852579D01*
X206638509Y-99913703D01*
X206641500Y-99940776D01*
X206641500Y-102476000D01*
X206621815Y-102543039D01*
X206569011Y-102588794D01*
X206517500Y-102600000D01*
X206290000Y-102600000D01*
X206290000Y-103564498D01*
X206182315Y-103515320D01*
X206075763Y-103500000D01*
X206004237Y-103500000D01*
X205897685Y-103515320D01*
X205790000Y-103564498D01*
X205790000Y-102600000D01*
X205476500Y-102600000D01*
X205409461Y-102580315D01*
X205363706Y-102527511D01*
X205352500Y-102476000D01*
X205352500Y-101423452D01*
X205372185Y-101356413D01*
X205388819Y-101335771D01*
X205505773Y-101218817D01*
X205911788Y-100812801D01*
X205924042Y-100802986D01*
X205923859Y-100802764D01*
X205929866Y-100797792D01*
X205929877Y-100797786D01*
X205960775Y-100764882D01*
X205977227Y-100747364D01*
X205987671Y-100736918D01*
X205998120Y-100726471D01*
X206002379Y-100720978D01*
X206006152Y-100716561D01*
X206038062Y-100682582D01*
X206047715Y-100665020D01*
X206058389Y-100648770D01*
X206070673Y-100632936D01*
X206089180Y-100590167D01*
X206091749Y-100584924D01*
X206114196Y-100544093D01*
X206114197Y-100544092D01*
X206119177Y-100524691D01*
X206125478Y-100506288D01*
X206133438Y-100487896D01*
X206140730Y-100441849D01*
X206141911Y-100436152D01*
X206153500Y-100391019D01*
X206153500Y-100370983D01*
X206155027Y-100351582D01*
X206158160Y-100331804D01*
X206153775Y-100285415D01*
X206153500Y-100279577D01*
X206153500Y-99825263D01*
X206173185Y-99758224D01*
X206225989Y-99712469D01*
X206295147Y-99702525D01*
X206350385Y-99724945D01*
G37*
%TD.AperFunction*%
%TA.AperFunction,Conductor*%
G36*
X201710355Y-78418083D02*
G01*
X201745769Y-78478312D01*
X201749500Y-78508502D01*
X201749500Y-79087534D01*
X201779898Y-79259937D01*
X201839775Y-79424446D01*
X201927309Y-79576057D01*
X202039836Y-79710163D01*
X202173942Y-79822690D01*
X202173943Y-79822691D01*
X202173945Y-79822692D01*
X202325555Y-79910225D01*
X202490062Y-79970101D01*
X202662468Y-80000500D01*
X202749901Y-80000500D01*
X204826373Y-80000500D01*
X204832204Y-80002212D01*
X204873407Y-80000565D01*
X204876635Y-80000520D01*
X204914329Y-80000975D01*
X205005110Y-80002074D01*
X205201462Y-80005206D01*
X205207813Y-80005636D01*
X205362628Y-80024241D01*
X205533201Y-80046737D01*
X205538996Y-80047786D01*
X205695786Y-80084018D01*
X205858204Y-80124849D01*
X205863418Y-80126408D01*
X206017476Y-80179968D01*
X206172545Y-80238597D01*
X206177070Y-80240519D01*
X206325634Y-80310840D01*
X206472243Y-80386542D01*
X206476123Y-80388728D01*
X206616964Y-80474998D01*
X206753634Y-80566867D01*
X206756902Y-80569222D01*
X206886818Y-80669444D01*
X206889220Y-80671395D01*
X207013261Y-80777364D01*
X207015908Y-80779760D01*
X207134398Y-80893416D01*
X207136891Y-80895949D01*
X207180369Y-80942748D01*
X207247925Y-81015464D01*
X207249974Y-81017783D01*
X207355528Y-81143425D01*
X207358028Y-81146607D01*
X207455509Y-81279337D01*
X207547535Y-81416416D01*
X207549917Y-81420261D01*
X207631653Y-81563586D01*
X207708062Y-81709029D01*
X207710207Y-81713544D01*
X207775228Y-81866006D01*
X207835151Y-82017689D01*
X207836936Y-82022865D01*
X207884488Y-82183425D01*
X207927207Y-82338543D01*
X207928511Y-82344350D01*
X207958088Y-82513844D01*
X207983111Y-82667689D01*
X207983812Y-82674079D01*
X207995115Y-82870129D01*
X208002013Y-82998336D01*
X208002102Y-83001671D01*
X208001200Y-98956600D01*
X207981512Y-99023638D01*
X207928705Y-99069390D01*
X207859546Y-99079330D01*
X207795992Y-99050301D01*
X207770505Y-99019776D01*
X207764953Y-99010401D01*
X207764951Y-99010398D01*
X207764949Y-99010395D01*
X207764946Y-99010392D01*
X207760164Y-99004234D01*
X207762109Y-99002722D01*
X207734419Y-98952060D01*
X207732254Y-98938615D01*
X207714674Y-98771344D01*
X207656179Y-98591316D01*
X207561533Y-98427384D01*
X207434871Y-98286712D01*
X207410549Y-98269041D01*
X207281734Y-98175451D01*
X207281729Y-98175448D01*
X207108807Y-98098457D01*
X207108802Y-98098455D01*
X206963001Y-98067465D01*
X206923646Y-98059100D01*
X206734354Y-98059100D01*
X206701897Y-98065998D01*
X206549197Y-98098455D01*
X206549192Y-98098457D01*
X206376270Y-98175448D01*
X206376267Y-98175450D01*
X206350383Y-98194256D01*
X206284576Y-98217734D01*
X206216523Y-98201907D01*
X206167829Y-98151800D01*
X206153500Y-98093936D01*
X206153500Y-97060507D01*
X206173185Y-96993468D01*
X206189830Y-96972815D01*
X206214662Y-96947989D01*
X206710754Y-96452019D01*
X206723043Y-96442178D01*
X206722863Y-96441960D01*
X206728864Y-96436993D01*
X206728877Y-96436986D01*
X206776198Y-96386593D01*
X206797068Y-96365730D01*
X206801348Y-96360212D01*
X206805120Y-96355794D01*
X206837062Y-96321782D01*
X206846692Y-96304261D01*
X206857381Y-96287993D01*
X206869633Y-96272204D01*
X206888160Y-96229401D01*
X206890719Y-96224176D01*
X206913197Y-96183292D01*
X206918168Y-96163932D01*
X206924477Y-96145509D01*
X206924896Y-96144540D01*
X206932415Y-96127172D01*
X206939716Y-96081110D01*
X206940896Y-96075410D01*
X206952500Y-96030219D01*
X206952500Y-96010228D01*
X206954029Y-95990815D01*
X206957157Y-95971083D01*
X206952775Y-95924660D01*
X206952500Y-95918830D01*
X206952500Y-91309617D01*
X206954224Y-91293985D01*
X206953942Y-91293959D01*
X206954674Y-91286202D01*
X206954676Y-91286195D01*
X206952500Y-91217077D01*
X206952500Y-91187550D01*
X206951627Y-91180643D01*
X206951169Y-91174828D01*
X206950477Y-91152837D01*
X206949703Y-91128235D01*
X206944117Y-91109013D01*
X206940171Y-91089961D01*
X206937664Y-91070108D01*
X206920502Y-91026763D01*
X206918609Y-91021235D01*
X206905605Y-90976481D01*
X206905601Y-90976471D01*
X206895415Y-90959251D01*
X206886848Y-90941764D01*
X206879486Y-90923168D01*
X206852088Y-90885459D01*
X206848880Y-90880576D01*
X206825147Y-90840450D01*
X206810992Y-90826297D01*
X206798354Y-90811500D01*
X206786594Y-90795313D01*
X206766007Y-90778283D01*
X206750672Y-90765596D01*
X206746352Y-90761665D01*
X206536823Y-90552160D01*
X206503334Y-90490839D01*
X206500499Y-90464474D01*
X206500499Y-89877129D01*
X206500498Y-89877123D01*
X206494091Y-89817516D01*
X206443797Y-89682671D01*
X206443793Y-89682664D01*
X206357547Y-89567455D01*
X206357544Y-89567452D01*
X206242335Y-89481206D01*
X206242328Y-89481202D01*
X206107482Y-89430908D01*
X206107483Y-89430908D01*
X206047883Y-89424501D01*
X206047881Y-89424500D01*
X206047873Y-89424500D01*
X206047864Y-89424500D01*
X204952129Y-89424500D01*
X204952123Y-89424501D01*
X204892516Y-89430908D01*
X204757671Y-89481202D01*
X204757664Y-89481206D01*
X204642455Y-89567452D01*
X204599266Y-89625145D01*
X204543332Y-89667015D01*
X204473640Y-89671999D01*
X204412317Y-89638513D01*
X204400734Y-89625145D01*
X204379376Y-89596615D01*
X204357546Y-89567454D01*
X204357544Y-89567453D01*
X204357544Y-89567452D01*
X204242335Y-89481206D01*
X204242330Y-89481203D01*
X204156166Y-89449066D01*
X204100233Y-89407194D01*
X204075816Y-89341730D01*
X204075500Y-89332884D01*
X204075500Y-88286887D01*
X204095185Y-88219848D01*
X204147989Y-88174093D01*
X204183316Y-88163948D01*
X204209340Y-88160522D01*
X204209345Y-88160520D01*
X204346172Y-88103845D01*
X204346173Y-88103845D01*
X204391945Y-88068722D01*
X204111819Y-87788596D01*
X204078334Y-87727273D01*
X204075500Y-87700915D01*
X204075500Y-87698086D01*
X204095185Y-87631047D01*
X204147989Y-87585292D01*
X204217147Y-87575348D01*
X204280703Y-87604373D01*
X204287181Y-87610405D01*
X204559439Y-87882663D01*
X204610521Y-87759342D01*
X204610521Y-87759341D01*
X204624999Y-87649377D01*
X204625000Y-87649363D01*
X204625000Y-87350636D01*
X204624999Y-87350622D01*
X204610521Y-87240658D01*
X204610521Y-87240657D01*
X204559439Y-87117335D01*
X204287181Y-87389595D01*
X204225858Y-87423080D01*
X204156167Y-87418096D01*
X204100233Y-87376225D01*
X204075816Y-87310760D01*
X204075500Y-87301914D01*
X204075500Y-87299084D01*
X204095185Y-87232045D01*
X204111819Y-87211403D01*
X204391945Y-86931276D01*
X204346178Y-86896157D01*
X204269897Y-86864561D01*
X204215494Y-86820720D01*
X204193429Y-86754426D01*
X204210708Y-86686727D01*
X204261845Y-86639116D01*
X204269898Y-86635439D01*
X204346172Y-86603845D01*
X204346173Y-86603845D01*
X204391945Y-86568722D01*
X204111819Y-86288596D01*
X204078334Y-86227273D01*
X204075500Y-86200915D01*
X204075500Y-86198086D01*
X204095185Y-86131047D01*
X204147989Y-86085292D01*
X204217147Y-86075348D01*
X204280703Y-86104373D01*
X204287181Y-86110405D01*
X204559439Y-86382663D01*
X204610521Y-86259342D01*
X204610521Y-86259341D01*
X204624999Y-86149377D01*
X204625000Y-86149363D01*
X204625000Y-85850636D01*
X204624999Y-85850622D01*
X204610521Y-85740658D01*
X204610521Y-85740657D01*
X204559439Y-85617335D01*
X204282461Y-85894314D01*
X204221138Y-85927799D01*
X204151446Y-85922815D01*
X204095513Y-85880943D01*
X204071840Y-85822810D01*
X204071510Y-85820301D01*
X204082283Y-85751270D01*
X204106770Y-85716451D01*
X204391945Y-85431276D01*
X204391945Y-85431275D01*
X204346178Y-85396157D01*
X204209341Y-85339478D01*
X204099377Y-85325000D01*
X203900622Y-85325000D01*
X203790658Y-85339478D01*
X203773101Y-85346750D01*
X203703631Y-85354216D01*
X203678204Y-85346750D01*
X203659472Y-85338991D01*
X203659469Y-85338990D01*
X203659470Y-85338990D01*
X203549401Y-85324500D01*
X203350596Y-85324500D01*
X203240536Y-85338988D01*
X203240527Y-85338991D01*
X203103574Y-85395719D01*
X202985964Y-85485964D01*
X202895719Y-85603574D01*
X202838991Y-85740527D01*
X202838990Y-85740529D01*
X202824501Y-85850589D01*
X202824500Y-85850605D01*
X202824500Y-89371138D01*
X202804815Y-89438177D01*
X202764581Y-89475637D01*
X202764769Y-89475888D01*
X202762441Y-89477630D01*
X202759932Y-89479967D01*
X202757670Y-89481202D01*
X202642455Y-89567452D01*
X202599266Y-89625145D01*
X202543332Y-89667015D01*
X202473640Y-89671999D01*
X202412317Y-89638513D01*
X202400734Y-89625145D01*
X202379376Y-89596615D01*
X202357546Y-89567454D01*
X202357544Y-89567453D01*
X202357544Y-89567452D01*
X202242335Y-89481206D01*
X202242328Y-89481202D01*
X202107482Y-89430908D01*
X202107483Y-89430908D01*
X202047883Y-89424501D01*
X202047881Y-89424500D01*
X202047873Y-89424500D01*
X202047865Y-89424500D01*
X201199500Y-89424500D01*
X201132461Y-89404815D01*
X201086706Y-89352011D01*
X201075500Y-89300500D01*
X201075500Y-78937799D01*
X201095185Y-78870760D01*
X201128377Y-78836224D01*
X201264620Y-78740826D01*
X201420826Y-78584620D01*
X201523925Y-78437378D01*
X201578502Y-78393754D01*
X201648000Y-78386560D01*
X201710355Y-78418083D01*
G37*
%TD.AperFunction*%
%TA.AperFunction,Conductor*%
G36*
X201501740Y-75928186D02*
G01*
X201523926Y-75896504D01*
X201578504Y-75852880D01*
X201648002Y-75845688D01*
X201710356Y-75877211D01*
X201745769Y-75937442D01*
X201749500Y-75967629D01*
X201749500Y-77031498D01*
X201729815Y-77098537D01*
X201677011Y-77144292D01*
X201607853Y-77154236D01*
X201544297Y-77125211D01*
X201523925Y-77102621D01*
X201420827Y-76955381D01*
X201420823Y-76955377D01*
X201264620Y-76799174D01*
X201264616Y-76799171D01*
X201264615Y-76799170D01*
X201083666Y-76672468D01*
X201083658Y-76672464D01*
X200954219Y-76612106D01*
X200901779Y-76565934D01*
X200882627Y-76498741D01*
X200902843Y-76431859D01*
X200954219Y-76387342D01*
X201083408Y-76327100D01*
X201083420Y-76327093D01*
X201148186Y-76281742D01*
X201148187Y-76281740D01*
X200582533Y-75716086D01*
X200592315Y-75714680D01*
X200723100Y-75654952D01*
X200831761Y-75560798D01*
X200909493Y-75439844D01*
X200933076Y-75359523D01*
X201501740Y-75928186D01*
G37*
%TD.AperFunction*%
%TA.AperFunction,Conductor*%
G36*
X200752695Y-73000735D02*
G01*
X200795519Y-73004482D01*
X200921771Y-73016918D01*
X200941685Y-73020541D01*
X201008349Y-73038403D01*
X201101570Y-73066682D01*
X201117971Y-73072958D01*
X201185411Y-73104406D01*
X201188375Y-73105888D01*
X201200596Y-73112420D01*
X201272327Y-73150762D01*
X201278667Y-73154657D01*
X201344828Y-73200983D01*
X201348600Y-73203844D01*
X201420808Y-73263103D01*
X201425309Y-73267182D01*
X201482815Y-73324688D01*
X201486895Y-73329190D01*
X201546154Y-73401398D01*
X201549015Y-73405170D01*
X201595341Y-73471331D01*
X201599236Y-73477671D01*
X201644101Y-73561605D01*
X201645614Y-73564631D01*
X201677040Y-73632027D01*
X201683319Y-73648435D01*
X201711601Y-73741669D01*
X201729454Y-73808299D01*
X201733082Y-73828238D01*
X201745523Y-73954554D01*
X201749264Y-73997302D01*
X201749500Y-74002710D01*
X201749500Y-74492370D01*
X201729815Y-74559409D01*
X201677011Y-74605164D01*
X201607853Y-74615108D01*
X201544297Y-74586083D01*
X201523926Y-74563494D01*
X201501741Y-74531811D01*
X201501740Y-74531811D01*
X200933076Y-75100475D01*
X200909493Y-75020156D01*
X200831761Y-74899202D01*
X200723100Y-74805048D01*
X200592315Y-74745320D01*
X200582533Y-74743913D01*
X201148187Y-74178258D01*
X201083409Y-74132900D01*
X201083407Y-74132899D01*
X200883284Y-74039580D01*
X200883270Y-74039575D01*
X200669986Y-73982426D01*
X200669976Y-73982424D01*
X200450001Y-73963179D01*
X200449999Y-73963179D01*
X200230023Y-73982424D01*
X200230013Y-73982426D01*
X200016729Y-74039575D01*
X200016720Y-74039579D01*
X199816586Y-74132903D01*
X199751812Y-74178257D01*
X199751811Y-74178258D01*
X200317467Y-74743913D01*
X200307685Y-74745320D01*
X200176900Y-74805048D01*
X200068239Y-74899202D01*
X199990507Y-75020156D01*
X199966923Y-75100476D01*
X199398258Y-74531811D01*
X199398257Y-74531812D01*
X199352903Y-74596586D01*
X199292658Y-74725781D01*
X199246485Y-74778220D01*
X199179292Y-74797372D01*
X199112411Y-74777156D01*
X199067894Y-74725781D01*
X199044509Y-74675633D01*
X199007534Y-74596339D01*
X198911015Y-74458494D01*
X198880827Y-74415381D01*
X198829014Y-74363568D01*
X198724620Y-74259174D01*
X198724616Y-74259171D01*
X198724615Y-74259170D01*
X198543666Y-74132468D01*
X198543662Y-74132466D01*
X198493624Y-74109133D01*
X198343450Y-74039106D01*
X198343447Y-74039105D01*
X198343445Y-74039104D01*
X198130070Y-73981930D01*
X198130062Y-73981929D01*
X197910002Y-73962677D01*
X197909998Y-73962677D01*
X197689937Y-73981929D01*
X197689929Y-73981930D01*
X197476554Y-74039104D01*
X197476548Y-74039107D01*
X197276340Y-74132465D01*
X197276338Y-74132466D01*
X197095377Y-74259175D01*
X196939175Y-74415377D01*
X196812466Y-74596338D01*
X196812465Y-74596340D01*
X196736882Y-74758429D01*
X196690710Y-74810868D01*
X196623516Y-74830020D01*
X196556635Y-74809804D01*
X196511300Y-74756639D01*
X196500500Y-74706024D01*
X196500500Y-74002705D01*
X196500736Y-73997299D01*
X196502038Y-73982426D01*
X196504476Y-73954544D01*
X196505784Y-73941277D01*
X196516918Y-73828223D01*
X196520542Y-73808309D01*
X196538402Y-73741653D01*
X196566683Y-73648424D01*
X196572953Y-73632037D01*
X196604420Y-73564558D01*
X196605872Y-73561653D01*
X196650764Y-73477666D01*
X196654657Y-73471331D01*
X196700994Y-73405155D01*
X196703827Y-73401420D01*
X196763122Y-73329168D01*
X196767162Y-73324710D01*
X196824710Y-73267162D01*
X196829168Y-73263122D01*
X196901420Y-73203827D01*
X196905155Y-73200994D01*
X196971334Y-73154654D01*
X196977666Y-73150764D01*
X197061653Y-73105872D01*
X197064558Y-73104420D01*
X197132037Y-73072953D01*
X197148424Y-73066683D01*
X197241653Y-73038402D01*
X197308309Y-73020542D01*
X197328223Y-73016918D01*
X197454542Y-73004477D01*
X197497305Y-73000735D01*
X197502706Y-73000500D01*
X200747293Y-73000500D01*
X200752695Y-73000735D01*
G37*
%TD.AperFunction*%
%TD*%
D21*
X206829000Y-98959600D03*
X201650000Y-94738500D03*
X202946000Y-94588500D03*
X200090000Y-95274200D03*
X198534000Y-101599000D03*
X198465000Y-93027600D03*
X203568000Y-93107000D03*
X201495000Y-99278300D03*
X204000000Y-85198700D03*
X196000000Y-83500000D03*
X191000000Y-83500000D03*
X196000000Y-88500000D03*
X191000000Y-88500000D03*
X196000000Y-93500000D03*
X191000000Y-93500000D03*
X196000000Y-98500000D03*
X191000000Y-98500000D03*
X196000000Y-103500000D03*
X191000000Y-103500000D03*
X196000000Y-108500000D03*
X191000000Y-108500000D03*
X196000000Y-113500000D03*
X191000000Y-113500000D03*
X196000000Y-118500000D03*
X191000000Y-118500000D03*
X203500000Y-112500000D03*
X206040000Y-112500000D03*
X203500000Y-115040000D03*
X200960000Y-112500000D03*
X203500000Y-109960000D03*
X190500000Y-76500000D03*
X197910000Y-77770000D03*
X197910000Y-75230000D03*
X200450000Y-77770000D03*
X200450000Y-75230000D03*
D22*
X203500000Y-97000000D03*
D21*
X203500000Y-104000000D03*
X206040000Y-104000000D03*
X203500000Y-106540000D03*
X200960000Y-104000000D03*
X203500000Y-101460000D03*
X190500000Y-125500000D03*
M02*
